<svg width="14" height="15" viewBox="0 0 14 15" fill="none" xmlns="http://www.w3.org/2000/svg">
<path d="M11.6667 5.16655L8.16666 2.09821C7.84581 1.81124 7.43045 1.65259 6.99999 1.65259C6.56953 1.65259 6.15417 1.81124 5.83333 2.09821L2.33333 5.16655C2.14804 5.33226 2.00019 5.53554 1.8996 5.76286C1.79902 5.99018 1.74802 6.23631 1.74999 6.48488V11.5832C1.74999 12.0473 1.93437 12.4925 2.26256 12.8207C2.59075 13.1488 3.03587 13.3332 3.49999 13.3332H10.5C10.9641 13.3332 11.4092 13.1488 11.7374 12.8207C12.0656 12.4925 12.25 12.0473 12.25 11.5832V6.47905C12.2511 6.23146 12.1997 5.98645 12.0992 5.7602C11.9986 5.53394 11.8512 5.33161 11.6667 5.16655ZM8.16666 12.1665H5.83333V9.24988C5.83333 9.09517 5.89479 8.9468 6.00418 8.8374C6.11358 8.72801 6.26195 8.66655 6.41666 8.66655H7.58333C7.73804 8.66655 7.88641 8.72801 7.99581 8.8374C8.1052 8.9468 8.16666 9.09517 8.16666 9.24988V12.1665ZM11.0833 11.5832C11.0833 11.7379 11.0219 11.8863 10.9125 11.9957C10.8031 12.1051 10.6547 12.1665 10.5 12.1665H9.33333V9.24988C9.33333 8.78575 9.14895 8.34063 8.82076 8.01244C8.49257 7.68426 8.04746 7.49988 7.58333 7.49988H6.41666C5.95253 7.49988 5.50741 7.68426 5.17922 8.01244C4.85103 8.34063 4.66666 8.78575 4.66666 9.24988V12.1665H3.49999C3.34528 12.1665 3.19691 12.1051 3.08752 11.9957C2.97812 11.8863 2.91666 11.7379 2.91666 11.5832V6.47905C2.91677 6.39622 2.93451 6.31437 2.9687 6.23894C3.0029 6.1635 3.05277 6.09621 3.11499 6.04155L6.61499 2.97905C6.72145 2.88553 6.8583 2.83395 6.99999 2.83395C7.14169 2.83395 7.27854 2.88553 7.38499 2.97905L10.885 6.04155C10.9472 6.09621 10.9971 6.1635 11.0313 6.23894C11.0655 6.31437 11.0832 6.39622 11.0833 6.47905V11.5832Z" fill="#A30000"/>
</svg>
