<svg width="14" height="15" viewBox="0 0 14 15" fill="none" xmlns="http://www.w3.org/2000/svg">
<path d="M5.25146 1.81079C4.53193 1.81079 3.93646 2.40628 3.93646 3.12579V3.56155H1.75079C1.03101 3.56155 0.439209 4.15593 0.439209 4.87569V5.75065C0.439209 6.2476 0.720251 6.70147 1.16293 6.92295C1.21226 6.94763 1.26142 6.97261 1.31075 6.99729V11.8736C1.31075 12.5931 1.90623 13.1886 2.62574 13.1886H11.3736C12.0931 13.1886 12.6886 12.5931 12.6886 11.8736V6.99729C12.7381 6.9725 12.7877 6.94774 12.8372 6.92295C13.28 6.7015 13.5601 6.2476 13.5601 5.75065V4.87569C13.5601 4.15593 12.9692 3.56155 12.2494 3.56155H10.0629V3.12579C10.0629 2.40628 9.46824 1.81079 8.74871 1.81079H5.25146ZM5.25146 2.68575H8.74871C8.99866 2.68575 9.1879 2.87585 9.1879 3.12579V3.56155H4.81142V3.12579C4.81142 2.87585 5.00152 2.68575 5.25146 2.68575ZM1.75079 4.43651H12.2494C12.4964 4.43651 12.6886 4.62872 12.6886 4.87569V5.75065C12.6886 5.91609 12.593 6.06713 12.4433 6.14199C10.6941 7.01713 8.94452 7.89128 7.19533 8.76685C7.07101 8.82902 6.9283 8.82902 6.80399 8.76685C5.0548 7.89128 3.30604 7.01713 1.55683 6.14199C1.40713 6.06709 1.31075 5.91609 1.31075 5.75065V4.87569C1.31075 4.62872 1.50381 4.43651 1.75079 4.43651ZM6.99966 7.06223C6.75805 7.06223 6.56218 7.25808 6.56218 7.4997C6.56218 7.74131 6.75804 7.93718 6.99966 7.93718C7.24128 7.93718 7.43714 7.74131 7.43714 7.4997C7.43713 7.25808 7.24127 7.06223 6.99966 7.06223ZM2.18655 7.43477C3.5947 8.13917 5.00224 8.84396 6.41009 9.54867C6.77994 9.73381 7.21938 9.73381 7.58923 9.54867C8.99712 8.84394 10.4054 8.13919 11.8136 7.43477V11.8736C11.8136 12.1235 11.6235 12.3128 11.3736 12.3128H2.62574C2.37583 12.3128 2.18655 12.1235 2.18655 11.8736V7.43477Z" fill="#A36200"/>
</svg>
